#!OML:ASF F:\VICON\USERDATA\INSTALL\rory3\rory3.ASF
:FULLY-SPECIFIED
:DEGREES
226
root -6.35102 15.7176 2.0489 12.2272 4.50056 -1.64491
lowerback 28.1013 2.23961 0.5041
upperback 5.848 3.30508 2.65213
thorax -9.10648 1.56711 1.52258
lowerneck -16.9923 8.48242 -2.40957
upperneck 10.1043 13.1547 -7.93381
head 6.24441 5.65594 -0.772591
rclavicle 0 2.14687e-014
rhumerus -28.9212 -28.1893 -57.3427
rradius 64.8275
rwrist 24.6149
rhand -38.6634 -10.9985
rfingers 7.12502
rthumb -11.6791 -40.6529
lclavicle 0 2.14687e-014
lhumerus -11.6465 23.0893 59.5702
lradius 66.7876
lwrist -11.1393
lhand -29.1984 53.4474
lfingers 7.12502
lthumb -2.54337 83.412
rfemur -62.6369 -11.236 24.0127
rtibia 97.8199
rfoot -7.54341 4.89768
rtoes 4.80428
lfemur -52.6007 -3.50947 -18.9877
ltibia 75.4869
lfoot -18.3201 -6.83035
ltoes -22.0654
227
root -6.35989 15.7402 2.11104 11.7094 5.08168 -1.4752
lowerback 28.5151 2.11266 0.589628
upperback 5.99734 3.17494 2.66962
thorax -9.13549 1.50421 1.53042
lowerneck -17.3191 8.30092 -2.54125
upperneck 10.4356 12.9389 -7.61185
head 6.36613 5.54463 -0.657711
rclavicle -2.42517e-014 -2.14687e-014
rhumerus -28.2929 -28.0093 -57.4638
rradius 65.0231
rwrist 24.932
rhand -38.4596 -12.1519
rfingers 7.12502
rthumb -11.4826 -41.8175
lclavicle -2.42517e-014 -2.14687e-014
lhumerus -12.3328 23.1445 59.4714
lradius 66.8803
lwrist -11.1677
lhand -28.6487 47.8887
lfingers 7.12502
lthumb -2.01247 77.859
rfemur -62.8998 -11.8324 24.3421
rtibia 96.8241
rfoot -8.02396 4.57025
rtoes 5.3512
lfemur -51.6239 -3.78986 -19.1353
ltibia 75.348
lfoot -18.5383 -6.92319
ltoes -22.9185
228
root -6.36491 15.763 2.1699 11.325 5.70707 -1.42299
lowerback 28.7232 1.97013 0.82214
upperback 6.11887 3.07286 2.7483
thorax -9.09027 1.45288 1.51755
lowerneck -17.5599 8.08389 -2.73565
upperneck 10.7456 12.6875 -7.3192
head 6.46594 5.41584 -0.550479
rclavicle -1.70955e-014 1.03368e-014
rhumerus -28.0134 -27.5235 -57.44
rradius 65.5886
rwrist 24.9604
rhand -38.5063 -12.4437
rfingers 7.12502
rthumb -11.5275 -42.1067
lclavicle -1.70955e-014 1.03368e-014
lhumerus -12.8027 23.3093 59.5678
lradius 66.6865
lwrist -11.2705
lhand -28.664 43.2344
lfingers 7.12502
lthumb -2.02722 73.2045
rfemur -63.3943 -12.4395 24.7754
rtibia 95.799
rfoot -8.367 4.2241
rtoes 5.24807
lfemur -50.8397 -4.06292 -19.143
ltibia 75.2142
lfoot -18.6904 -7.14577
ltoes -22.9656
229
root -6.36781 15.7711 2.21489 11.2434 5.84081 -1.30619
lowerback 28.7753 2.0332 0.79045
upperback 6.14531 3.14661 2.7621
thorax -9.09051 1.48846 1.52404
lowerneck -17.6245 7.84438 -2.78002
upperneck 10.8138 12.3789 -7.28012
head 6.48654 5.26254 -0.561983
rclavicle -1.59028e-015 2.38542e-014
rhumerus -27.649 -27.1753 -57.4415
rradius 66.0712
rwrist 25.3078
rhand -38.354 -12.7211
rfingers 7.12502
rthumb -11.3807 -42.3923
lclavicle -1.59028e-015 2.38542e-014
lhumerus -13.4589 23.4651 59.6252
lradius 66.7177
lwrist -11.3961
lhand -28.6381 41.9278
lfingers 7.12502
lthumb -2.00216 71.8982
rfemur -64.3945 -12.5555 25.0728
rtibia 94.6824
rfoot -8.60512 3.86294
rtoes 4.36924
lfemur -50.5123 -4.0019 -19.301
ltibia 75.1762
lfoot -18.7588 -7.26792
ltoes -22.313
230
root -6.3705 15.7632 2.25076 11.4604 5.46358 -1.36486
lowerback 28.4732 2.27317 0.682325
upperback 6.16086 3.41281 2.76587
thorax -8.93713 1.61608 1.50376
lowerneck -17.8858 7.53317 -3.09772
upperneck 11.1288 12.0116 -6.86916
head 6.57604 5.08283 -0.412129
rclavicle 3.10104e-014 2.8625e-014
rhumerus -26.8651 -27.1411 -57.4863
rradius 66.0466
rwrist 25.9497
rhand -38.3578 -12.3454
rfingers 7.12502
rthumb -11.3843 -42.0164
lclavicle 3.10104e-014 2.8625e-014
lhumerus -14.1957 23.5987 59.607
lradius 66.8007
lwrist -11.3607
lhand -28.7278 43.1872
lfingers 7.12502
lthumb -2.08881 73.1567
rfemur -65.7483 -12.0243 25.4612
rtibia 93.6029
rfoot -8.9327 3.40281
rtoes 3.54736
lfemur -50.6714 -3.46302 -19.362
ltibia 75.2968
lfoot -18.84 -7.2632
ltoes -22.3346
231
root -6.3746 15.7399 2.27307 11.9916 4.62985 -1.61395
lowerback 27.9674 2.72025 0.554881
upperback 6.07133 3.93297 2.74133
thorax -8.80838 1.86258 1.38119
lowerneck -18.1493 7.22578 -3.3237
upperneck 11.455 11.6383 -6.51756
head 6.68171 4.89914 -0.294333
rclavicle -1.11319e-014 1.03368e-014
rhumerus -26.5069 -26.9238 -57.4314
rradius 66.4158
rwrist 26.5159
rhand -38.3879 -12.3897
rfingers 7.12502
rthumb -11.4134 -42.0591
lclavicle -1.11319e-014 1.03368e-014
lhumerus -14.8028 23.6007 59.6545
lradius 66.9019
lwrist -11.305
lhand -28.7245 44.2764
lfingers 7.12502
lthumb -2.08563 74.246
rfemur -67.6772 -10.8901 26.0321
rtibia 92.292
rfoot -8.57102 2.9891
rtoes 3.69726
lfemur -51.3279 -2.39888 -19.3133
ltibia 75.5253
lfoot -18.8872 -7.20421
ltoes -22.8342
232
root -6.3804 15.7339 2.31243 12.3884 4.33368 -1.4948
lowerback 27.5662 2.96584 0.306424
upperback 5.99485 4.16756 2.6921
thorax -8.71477 1.97933 1.40023
lowerneck -18.2647 6.96182 -3.45342
upperneck 11.5855 11.3004 -6.3263
head 6.71816 4.73758 -0.246268
rclavicle -2.46493e-014 3.10104e-014
rhumerus -26.3285 -26.4893 -57.3919
rradius 67.1272
rwrist 26.519
rhand -38.3757 -12.9082
rfingers 7.12502
rthumb -11.4017 -42.5782
lclavicle -2.46493e-014 3.10104e-014
lhumerus -15.4983 23.5824 59.6721
lradius 67.0886
lwrist -11.3433
lhand -28.5655 43.94
lfingers 7.12502
lthumb -1.93209 73.911
rfemur -69.1148 -10.4407 26.1854
rtibia 90.8463
rfoot -8.4626 2.67245
rtoes 4.82353
lfemur -51.615 -1.87167 -19.5927
ltibia 75.5136
lfoot -18.8829 -7.28678
ltoes -22.8197
233
root -6.3929 15.7638 2.38 12.0081 5.10684 -1.1803
lowerback 27.809 2.76917 0.293598
upperback 6.09018 3.92194 2.73088
thorax -8.72437 1.86568 1.52867
lowerneck -18.1678 6.68113 -3.43597
upperneck 11.6469 10.8984 -6.21979
head 6.71022 4.55304 -0.262427
rclavicle -3.49861e-014 2.46493e-014
rhumerus -25.8888 -26.2564 -57.3827
rradius 67.412
rwrist 26.7355
rhand -38.2569 -12.8819
rfingers 7.12502
rthumb -11.2871 -42.5583
lclavicle -3.49861e-014 2.46493e-014
lhumerus -16.2955 23.6911 59.649
lradius 67.2248
lwrist -11.2844
lhand -28.4042 44.4684
lfingers 7.12502
lthumb -1.7763 74.4407
rfemur -69.0878 -11.1382 26.1124
rtibia 89.2137
rfoot -8.9567 2.19036
rtoes 4.7538
lfemur -50.711 -2.17232 -19.8851
ltibia 75.1645
lfoot -19.03 -7.47521
ltoes -22.8896
234
root -6.40702 15.8071 2.45461 11.1832 6.4084 -0.725259
lowerback 28.5339 2.35721 0.40114
upperback 6.30365 3.4435 2.77389
thorax -8.82283 1.63978 1.66369
lowerneck -18.1988 6.42181 -3.25787
upperneck 11.7672 10.5139 -6.20689
head 6.75717 4.36947 -0.324738
rclavicle -1.51076e-014 7.95139e-015
rhumerus -25.1646 -26.2381 -57.4244
rradius 67.3246
rwrist 27.029
rhand -38.2195 -12.0624
rfingers 7.12502
rthumb -11.251 -41.7407
lclavicle -1.51076e-014 7.95139e-015
lhumerus -16.9418 23.9007 59.6467
lradius 67.2035
lwrist -11.3155
lhand -28.2428 44.8516
lfingers 7.12502
lthumb -1.62041 74.8252
rfemur -68.3306 -12.3925 25.825
rtibia 87.4576
rfoot -9.47748 1.69552
rtoes 3.79922
lfemur -49.1094 -2.98864 -20.1965
ltibia 74.6398
lfoot -19.1725 -7.84394
ltoes -21.9731
235
root -6.41864 15.8337 2.51605 10.7403 7.15233 -0.549963
lowerback 29.0085 2.14643 0.529628
upperback 6.37153 3.22851 2.82655
thorax -8.96869 1.53689 1.71412
lowerneck -18.2714 6.15229 -3.16845
upperneck 11.8732 10.1442 -6.22663
head 6.80401 4.18624 -0.381767
rclavicle -1.82882e-014 7.95139e-016
rhumerus -24.7821 -25.9319 -57.4096
rradius 67.7439
rwrist 27.045
rhand -38.0466 -12.0985
rfingers 7.12502
rthumb -11.0842 -41.7857
lclavicle -1.82882e-014 7.95139e-016
lhumerus -17.7124 24.0806 59.6401
lradius 67.2728
lwrist -11.1952
lhand -28.3856 44.627
lfingers 7.12502
lthumb -1.75828 74.5995
rfemur -68.1653 -12.9937 25.7915
rtibia 85.6077
rfoot -9.51365 1.28737
rtoes 3.08465
lfemur -48.0727 -3.25975 -20.3265
ltibia 74.2711
lfoot -19.3001 -7.92146
ltoes -22.2161
236
root -6.42947 15.8448 2.5684 10.6077 7.27596 -0.553487
lowerback 29.1522 2.19882 0.597175
upperback 6.36133 3.31732 2.81812
thorax -9.04949 1.57636 1.63013
lowerneck -18.295 5.79982 -3.21111
upperneck 11.9378 9.6601 -6.07951
head 6.81094 3.96049 -0.381541
rclavicle -1.43125e-014 -2.38542e-014
rhumerus -24.3731 -25.7916 -57.4238
rradius 67.9835
rwrist 27.4234
rhand -38.1155 -12.5213
rfingers 7.12502
rthumb -11.1506 -42.205
lclavicle -1.43125e-014 -2.38542e-014
lhumerus -18.4014 24.0029 59.5544
lradius 67.2825
lwrist -10.9909
lhand -28.6393 43.6974
lfingers 7.12502
lthumb -2.00332 73.6678
rfemur -68.5069 -12.9017 25.8533
rtibia 83.7313
rfoot -9.03484 1.01074
rtoes 2.60589
lfemur -47.5282 -3.00167 -20.3667
ltibia 74.0413
lfoot -19.3046 -7.97103
ltoes -22.2055
237
root -6.4392 15.8545 2.62465 10.4827 7.57868 -0.593245
lowerback 29.1273 2.16728 0.766361
upperback 6.41635 3.32832 2.837
thorax -8.9669 1.57919 1.55111
lowerneck -18.0721 5.45276 -3.04961
upperneck 11.78 9.12151 -6.06023
head 6.72015 3.72275 -0.469103
rclavicle -2.38542e-014 -3.18055e-015
rhumerus -23.5735 -25.9227 -57.5053
rradius 67.7574
rwrist 28.0994
rhand -38.2185 -12.3603
rfingers 7.12502
rthumb -11.25 -42.0386
lclavicle -2.38542e-014 -3.18055e-015
lhumerus -18.9543 24.0606 59.5818
lradius 67.2416
lwrist -10.751
lhand -28.8143 42.742
lfingers 7.12502
lthumb -2.17237 72.7107
rfemur -68.7491 -12.9074 25.8629
rtibia 81.7765
rfoot -8.33824 0.799151
rtoes 2.48838
lfemur -47.0626 -2.85321 -20.3485
ltibia 73.8742
lfoot -19.3503 -8.1221
ltoes -21.7386
238
root -6.45259 15.8664 2.68377 10.3652 7.9869 -0.355756
lowerback 29.0438 2.13565 0.641377
upperback 6.4954 3.25106 2.83806
thorax -8.84073 1.54794 1.65486
lowerneck -17.8285 5.1225 -2.70525
upperneck 11.7047 8.60182 -6.24526
head 6.6706 3.48026 -0.645769
rclavicle 5.56597e-015 -2.38542e-015
rhumerus -22.8069 -25.9133 -57.5496
rradius 67.6715
rwrist 28.3843
rhand -38.1163 -12.4755
rfingers 7.12502
rthumb -11.1514 -42.1592
lclavicle 5.56597e-015 -2.38542e-015
lhumerus -19.5758 24.2245 59.6024
lradius 67.2312
lwrist -10.5701
lhand -28.8481 43.5758
lfingers 7.12502
lthumb -2.20504 73.5441
rfemur -68.9246 -13.0451 25.5245
rtibia 79.8533
rfoot -7.48792 0.551725
rtoes 2.45456
lfemur -46.4926 -2.9144 -20.5775
ltibia 73.6972
lfoot -19.4702 -8.2401
ltoes -21.0843
